<svg width="24" height="24" viewBox="0 0 24 24" fill="none" xmlns="http://www.w3.org/2000/svg">
<path d="M4.90396 22H0.0639648V10H4.90396V22ZM21.9553 13.588C21.1257 13.473 21.3958 12.854 21.9853 12.666C22.4896 12.506 23.296 12.166 23.296 11.156C23.296 10.484 22.812 9.594 21.0976 9.666C19.9089 9.716 17.5489 9.468 16.278 8.781C17.155 5.125 16.9439 0 14.644 0C13.101 0 12.8087 1.807 12.345 3.469C11.1631 7.711 9.13896 9.486 6.83996 10.354V21.232C11.0817 21.933 12.9819 24 17.0088 24C20.1045 24 21.7055 22.265 21.7055 21.334C21.7055 20.999 21.4422 20.761 20.7763 20.708C19.9912 20.646 20.0657 19.896 20.8063 19.755C22.0337 19.521 22.5738 18.841 22.5738 18.212C22.5738 17.683 22.1905 17.19 21.511 17.031C20.7008 16.842 20.8682 16.274 21.541 16.219C22.6377 16.129 23.175 15.455 23.175 14.809C23.175 14.244 22.7645 13.7 21.9553 13.588Z" fill="#626262"/>
</svg>
