<svg width="143" height="52" viewBox="0 0 143 52" fill="none" xmlns="http://www.w3.org/2000/svg">
<path d="M1.52728 9.36844C1.52728 7.15492 3.13706 5.27012 5.32333 4.92385L27.5112 1.40965C30.2432 0.976944 32.7152 3.08821 32.7152 5.85424V42.0398C32.7152 44.2184 31.1545 46.0841 29.0102 46.469L6.82233 50.4518C4.06297 50.9471 1.52728 48.826 1.52728 46.0226V9.36844Z" fill="#E7B32D" stroke="#B9B9B9"/>
<path d="M42.87 21.64C42.7 21.57 42.51 21.52 42.3 21.49C42.1 21.45 41.855 21.43 41.565 21.43C41.155 21.43 40.75 21.505 40.35 21.655C39.96 21.805 39.61 22.05 39.3 22.39C39 22.73 38.755 23.175 38.565 23.725C38.385 24.275 38.295 24.95 38.295 25.75C38.295 26.47 38.375 27.1 38.535 27.64C38.705 28.18 38.935 28.63 39.225 28.99C39.525 29.35 39.88 29.62 40.29 29.8C40.71 29.98 41.175 30.07 41.685 30.07C41.945 30.07 42.185 30.05 42.405 30.01C42.635 29.96 42.845 29.895 43.035 29.815V28.315H44.145V30.34L44.16 30.37C43.86 30.6 43.48 30.795 43.02 30.955C42.56 31.105 42 31.18 41.34 31.18C40.71 31.18 40.125 31.075 39.585 30.865C39.055 30.645 38.595 30.315 38.205 29.875C37.815 29.435 37.51 28.875 37.29 28.195C37.08 27.505 36.975 26.69 36.975 25.75C36.975 24.77 37.095 23.94 37.335 23.26C37.575 22.57 37.9 22.01 38.31 21.58C38.72 21.14 39.195 20.82 39.735 20.62C40.285 20.42 40.87 20.32 41.49 20.32C41.83 20.32 42.125 20.335 42.375 20.365C42.625 20.385 42.845 20.42 43.035 20.47C43.225 20.51 43.39 20.565 43.53 20.635C43.68 20.705 43.825 20.785 43.965 20.875H43.98V23.245H42.87V21.64ZM48.1891 25.75C48.1891 24.01 48.4941 22.67 49.1041 21.73C49.7241 20.79 50.6741 20.32 51.9541 20.32C52.6541 20.32 53.2441 20.45 53.7241 20.71C54.2141 20.97 54.6091 21.34 54.9091 21.82C55.2091 22.29 55.4241 22.86 55.5541 23.53C55.6841 24.19 55.7491 24.93 55.7491 25.75C55.7491 27.49 55.4391 28.83 54.8191 29.77C54.2091 30.71 53.2541 31.18 51.9541 31.18C51.2641 31.18 50.6791 31.05 50.1991 30.79C49.7191 30.53 49.3291 30.165 49.0291 29.695C48.7291 29.215 48.5141 28.645 48.3841 27.985C48.2541 27.315 48.1891 26.57 48.1891 25.75ZM49.5091 25.75C49.5091 26.33 49.5441 26.88 49.6141 27.4C49.6941 27.92 49.8291 28.38 50.0191 28.78C50.2091 29.17 50.4591 29.485 50.7691 29.725C51.0791 29.955 51.4741 30.07 51.9541 30.07C52.8141 30.07 53.4391 29.72 53.8291 29.02C54.2291 28.32 54.4291 27.23 54.4291 25.75C54.4291 25.18 54.3891 24.635 54.3091 24.115C54.2391 23.585 54.1091 23.125 53.9191 22.735C53.7291 22.335 53.4741 22.02 53.1541 21.79C52.8341 21.55 52.4341 21.43 51.9541 21.43C51.1041 21.43 50.4841 21.785 50.0941 22.495C49.7041 23.195 49.5091 24.28 49.5091 25.75ZM66.7683 22.9C66.7683 23.15 66.7283 23.405 66.6483 23.665C66.5683 23.925 66.4483 24.17 66.2883 24.4C66.1283 24.62 65.9233 24.815 65.6733 24.985C65.4233 25.155 65.1283 25.285 64.7883 25.375V25.435C65.0883 25.485 65.3733 25.57 65.6433 25.69C65.9233 25.81 66.1683 25.975 66.3783 26.185C66.5883 26.395 66.7583 26.65 66.8883 26.95C67.0183 27.25 67.0833 27.605 67.0833 28.015C67.0833 28.555 66.9683 29.025 66.7383 29.425C66.5183 29.815 66.2233 30.135 65.8533 30.385C65.4933 30.635 65.0783 30.82 64.6083 30.94C64.1383 31.06 63.6583 31.12 63.1683 31.12C62.9983 31.12 62.7983 31.12 62.5683 31.12C62.3383 31.12 62.0983 31.11 61.8483 31.09C61.5983 31.08 61.3483 31.06 61.0983 31.03C60.8483 31.01 60.6283 30.975 60.4383 30.925V20.59C60.8083 20.53 61.2383 20.48 61.7283 20.44C62.2183 20.4 62.7533 20.38 63.3333 20.38C63.7233 20.38 64.1183 20.415 64.5183 20.485C64.9283 20.545 65.2983 20.67 65.6283 20.86C65.9583 21.04 66.2283 21.295 66.4383 21.625C66.6583 21.955 66.7683 22.38 66.7683 22.9ZM63.2883 30.04C63.6083 30.04 63.9183 30 64.2183 29.92C64.5183 29.84 64.7833 29.72 65.0133 29.56C65.2433 29.4 65.4233 29.2 65.5533 28.96C65.6933 28.72 65.7633 28.435 65.7633 28.105C65.7633 27.695 65.6783 27.365 65.5083 27.115C65.3483 26.865 65.1333 26.67 64.8633 26.53C64.6033 26.39 64.3083 26.295 63.9783 26.245C63.6483 26.195 63.3183 26.17 62.9883 26.17H61.6833V29.935C61.7533 29.955 61.8533 29.97 61.9833 29.98C62.1133 29.99 62.2533 30 62.4033 30.01C62.5533 30.02 62.7083 30.03 62.8683 30.04C63.0283 30.04 63.1683 30.04 63.2883 30.04ZM62.4633 25.12C62.6333 25.12 62.8383 25.115 63.0783 25.105C63.3183 25.095 63.5183 25.08 63.6783 25.06C63.9183 24.98 64.1433 24.885 64.3533 24.775C64.5633 24.655 64.7483 24.515 64.9083 24.355C65.0783 24.195 65.2083 24.015 65.2983 23.815C65.3983 23.615 65.4483 23.395 65.4483 23.155C65.4483 22.825 65.3833 22.55 65.2533 22.33C65.1333 22.11 64.9683 21.935 64.7583 21.805C64.5483 21.675 64.3083 21.585 64.0383 21.535C63.7683 21.485 63.4933 21.46 63.2133 21.46C62.8833 21.46 62.5783 21.47 62.2983 21.49C62.0283 21.5 61.8233 21.52 61.6833 21.55V25.12H62.4633ZM72.0124 20.5H78.1774V21.61H73.2574V25.045H77.8024V26.155H73.2574V29.89H78.2524V31H72.0124V20.5ZM82.4766 20.5H90.2766V23.245H89.1666V21.61H86.9916V29.89H88.6416V31H84.0966V29.89H85.7466V21.61H83.5866V23.245H82.4766V20.5ZM95.8207 20.5V23.98C95.8207 25.35 96.4407 26.035 97.6807 26.035C98.1507 26.035 98.5907 25.975 99.0007 25.855C99.4107 25.725 99.7457 25.555 100.006 25.345V20.5H101.251V31H100.006V26.47C99.7357 26.62 99.3807 26.77 98.9407 26.92C98.5007 27.07 97.9957 27.145 97.4257 27.145C97.0057 27.145 96.6207 27.1 96.2707 27.01C95.9207 26.91 95.6207 26.75 95.3707 26.53C95.1207 26.3 94.9257 25.995 94.7857 25.615C94.6457 25.235 94.5757 24.765 94.5757 24.205V20.5H95.8207ZM111.67 24.04L111.76 22.54H111.67L110.8 24.22L106.9 31H105.715V20.5H106.96V27.55L106.885 29.035H106.975L107.83 27.355L111.73 20.5H112.915V31H111.67V24.04ZM119.959 26.14H118.804V31H117.559V20.5H118.804V25.18H119.929L123.304 20.5H124.744L121.039 25.495L125.209 31H123.634L119.959 26.14Z" fill="#FFCB44"/>
<path d="M61.28 40.03C60.924 40.03 60.602 39.95 60.314 39.79C60.03 39.63 59.804 39.396 59.636 39.088C59.468 38.776 59.384 38.404 59.384 37.972C59.384 37.364 59.494 36.828 59.714 36.364C59.938 35.9 60.24 35.542 60.62 35.29C61.004 35.038 61.428 34.912 61.892 34.912C62.248 34.912 62.568 34.992 62.852 35.152C63.14 35.312 63.368 35.548 63.536 35.86C63.704 36.168 63.788 36.538 63.788 36.97C63.788 37.578 63.676 38.114 63.452 38.578C63.232 39.042 62.93 39.4 62.546 39.652C62.166 39.904 61.744 40.03 61.28 40.03ZM61.34 39.322C61.652 39.322 61.926 39.226 62.162 39.034C62.402 38.842 62.586 38.576 62.714 38.236C62.842 37.892 62.906 37.504 62.906 37.072C62.906 36.596 62.806 36.236 62.606 35.992C62.406 35.744 62.148 35.62 61.832 35.62C61.524 35.62 61.252 35.716 61.016 35.908C60.78 36.096 60.596 36.362 60.464 36.706C60.332 37.046 60.266 37.434 60.266 37.87C60.266 38.346 60.366 38.708 60.566 38.956C60.766 39.2 61.024 39.322 61.34 39.322ZM65.5438 40.03C65.3918 40.03 65.2838 39.95 65.2198 39.79C65.1598 39.63 65.1298 39.374 65.1298 39.022C65.1298 38.502 65.2038 38.008 65.3518 37.54C65.3878 37.424 65.4458 37.34 65.5258 37.288C65.6098 37.232 65.7258 37.204 65.8738 37.204C65.9538 37.204 66.0098 37.214 66.0418 37.234C66.0738 37.254 66.0898 37.292 66.0898 37.348C66.0898 37.412 66.0598 37.556 65.9998 37.78C65.9598 37.94 65.9278 38.08 65.9038 38.2C65.8798 38.316 65.8598 38.462 65.8438 38.638C65.9518 38.326 66.0798 38.062 66.2278 37.846C66.3798 37.63 66.5338 37.47 66.6898 37.366C66.8498 37.258 66.9998 37.204 67.1398 37.204C67.2798 37.204 67.3778 37.236 67.4338 37.3C67.4938 37.364 67.5238 37.462 67.5238 37.594C67.5238 37.722 67.4858 37.954 67.4098 38.29C67.3778 38.434 67.3558 38.542 67.3438 38.614C67.5438 38.122 67.7658 37.764 68.0098 37.54C68.2538 37.316 68.4818 37.204 68.6938 37.204C68.9538 37.204 69.0838 37.334 69.0838 37.594C69.0838 37.75 69.0398 38.032 68.9518 38.44C68.8758 38.788 68.8378 39.018 68.8378 39.13C68.8378 39.29 68.8958 39.37 69.0118 39.37C69.0918 39.37 69.1858 39.322 69.2938 39.226C69.4058 39.126 69.5538 38.966 69.7378 38.746C69.7858 38.69 69.8398 38.662 69.8998 38.662C69.9518 38.662 69.9918 38.686 70.0198 38.734C70.0518 38.782 70.0678 38.848 70.0678 38.932C70.0678 39.092 70.0298 39.216 69.9538 39.304C69.7818 39.516 69.5958 39.69 69.3958 39.826C69.1998 39.962 68.9758 40.03 68.7238 40.03C68.5198 40.03 68.3658 39.972 68.2618 39.856C68.1578 39.736 68.1058 39.564 68.1058 39.34C68.1058 39.228 68.1338 39.028 68.1898 38.74C68.2418 38.488 68.2678 38.314 68.2678 38.218C68.2678 38.154 68.2458 38.122 68.2018 38.122C68.1498 38.122 68.0758 38.19 67.9798 38.326C67.8838 38.458 67.7878 38.634 67.6918 38.854C67.5958 39.074 67.5178 39.306 67.4578 39.55C67.4138 39.742 67.3618 39.87 67.3018 39.934C67.2458 39.998 67.1538 40.03 67.0258 40.03C66.8938 40.03 66.7938 39.968 66.7258 39.844C66.6618 39.716 66.6298 39.562 66.6298 39.382C66.6298 39.23 66.6498 39.01 66.6898 38.722C66.7218 38.466 66.7378 38.298 66.7378 38.218C66.7378 38.154 66.7158 38.122 66.6718 38.122C66.6118 38.122 66.5358 38.194 66.4438 38.338C66.3518 38.482 66.2618 38.666 66.1738 38.89C66.0898 39.114 66.0218 39.334 65.9698 39.55C65.9258 39.738 65.8738 39.866 65.8138 39.934C65.7578 39.998 65.6678 40.03 65.5438 40.03ZM76.8046 38.662C76.8566 38.662 76.8966 38.686 76.9246 38.734C76.9566 38.782 76.9726 38.848 76.9726 38.932C76.9726 39.08 76.9346 39.204 76.8586 39.304C76.6706 39.552 76.4346 39.746 76.1506 39.886C75.8666 40.022 75.5826 40.09 75.2986 40.09C74.9586 40.09 74.6986 40.02 74.5186 39.88C74.3426 39.736 74.2546 39.524 74.2546 39.244C74.2546 38.972 74.3426 38.734 74.5186 38.53C74.6986 38.322 74.9566 38.102 75.2926 37.87C75.2206 37.898 75.1306 37.912 75.0226 37.912C74.8946 37.912 74.7826 37.878 74.6866 37.81C74.5946 37.742 74.5226 37.64 74.4706 37.504C74.3706 37.952 74.2406 38.304 74.0806 38.56C73.9366 38.792 73.8006 38.982 73.6726 39.13C73.5486 39.274 73.4046 39.426 73.2406 39.586C73.1686 39.658 73.0926 39.694 73.0126 39.694C72.9486 39.694 72.8966 39.672 72.8566 39.628C72.8166 39.58 72.7966 39.522 72.7966 39.454C72.7966 39.374 72.8246 39.3 72.8806 39.232L73.0366 39.046C73.2326 38.826 73.3786 38.634 73.4746 38.47C73.5626 38.322 73.6446 38.158 73.7206 37.978C73.8006 37.794 73.8826 37.552 73.9666 37.252C74.0426 36.984 74.2066 36.85 74.4586 36.85C74.6386 36.85 74.7646 36.932 74.8366 37.096C74.8806 37.192 74.9346 37.264 74.9986 37.312C75.0666 37.356 75.1706 37.378 75.3106 37.378C75.3786 37.378 75.4466 37.37 75.5146 37.354C75.5826 37.338 75.6426 37.32 75.6946 37.3C75.7506 37.28 75.7866 37.268 75.8026 37.264C75.9186 37.216 76.0026 37.192 76.0546 37.192C76.1226 37.192 76.1766 37.212 76.2166 37.252C76.2566 37.292 76.2766 37.352 76.2766 37.432C76.2766 37.616 76.2046 37.764 76.0606 37.876C75.6726 38.176 75.3986 38.416 75.2386 38.596C75.0826 38.772 75.0046 38.948 75.0046 39.124C75.0046 39.324 75.1286 39.424 75.3766 39.424C75.5646 39.424 75.7806 39.364 76.0246 39.244C76.2686 39.12 76.4746 38.954 76.6426 38.746C76.6866 38.69 76.7406 38.662 76.8046 38.662ZM80.1447 38.662C80.1967 38.662 80.2367 38.686 80.2647 38.734C80.2967 38.782 80.3127 38.848 80.3127 38.932C80.3127 39.092 80.2747 39.216 80.1987 39.304C80.0507 39.484 79.8407 39.65 79.5687 39.802C79.3007 39.954 79.0127 40.03 78.7047 40.03C78.2847 40.03 77.9587 39.916 77.7267 39.688C77.4947 39.46 77.3787 39.148 77.3787 38.752C77.3787 38.476 77.4367 38.22 77.5527 37.984C77.6687 37.744 77.8287 37.554 78.0327 37.414C78.2407 37.274 78.4747 37.204 78.7347 37.204C78.9667 37.204 79.1527 37.274 79.2927 37.414C79.4327 37.55 79.5027 37.736 79.5027 37.972C79.5027 38.248 79.4027 38.486 79.2027 38.686C79.0067 38.882 78.6727 39.038 78.2007 39.154C78.3007 39.338 78.4907 39.43 78.7707 39.43C78.9507 39.43 79.1547 39.368 79.3827 39.244C79.6147 39.116 79.8147 38.95 79.9827 38.746C80.0307 38.69 80.0847 38.662 80.1447 38.662ZM78.6327 37.792C78.4847 37.792 78.3587 37.878 78.2547 38.05C78.1547 38.222 78.1047 38.43 78.1047 38.674V38.686C78.3407 38.63 78.5267 38.546 78.6627 38.434C78.7987 38.322 78.8667 38.192 78.8667 38.044C78.8667 37.968 78.8447 37.908 78.8007 37.864C78.7607 37.816 78.7047 37.792 78.6327 37.792ZM84.3542 38.662C84.4062 38.662 84.4462 38.686 84.4742 38.734C84.5062 38.782 84.5222 38.848 84.5222 38.932C84.5222 39.092 84.4842 39.216 84.4082 39.304C84.2762 39.46 84.1602 39.586 84.0602 39.682C83.9642 39.774 83.8442 39.856 83.7002 39.928C83.5602 39.996 83.4002 40.03 83.2202 40.03C82.9842 40.03 82.8162 39.938 82.7162 39.754C82.6162 39.566 82.5662 39.284 82.5662 38.908C82.5662 38.72 82.5742 38.538 82.5902 38.362H82.5782C82.4182 38.894 82.2202 39.304 81.9842 39.592C81.7522 39.88 81.4862 40.024 81.1862 40.024C80.9822 40.024 80.8222 39.95 80.7062 39.802C80.5902 39.654 80.5322 39.468 80.5322 39.244C80.5322 39.044 80.5782 38.882 80.6702 38.758C80.7622 38.634 80.8922 38.572 81.0602 38.572C81.1362 38.572 81.1922 38.588 81.2282 38.62C81.2682 38.652 81.2842 38.696 81.2762 38.752C81.2442 38.944 81.2282 39.076 81.2282 39.148C81.2282 39.292 81.2642 39.364 81.3362 39.364C81.3762 39.364 81.4202 39.334 81.4682 39.274C81.5202 39.214 81.6062 39.068 81.7262 38.836C81.8182 38.66 81.9122 38.462 82.0082 38.242C82.1082 38.022 82.1902 37.826 82.2542 37.654C82.3182 37.486 82.3922 37.372 82.4762 37.312C82.5602 37.248 82.6802 37.216 82.8362 37.216C82.9882 37.216 83.1002 37.246 83.1722 37.306C83.2442 37.366 83.2802 37.464 83.2802 37.6L83.2682 38.044C83.2522 38.38 83.2442 38.622 83.2442 38.77C83.2442 39.19 83.3302 39.4 83.5022 39.4C83.5742 39.4 83.6442 39.366 83.7122 39.298C83.7842 39.23 83.8942 39.106 84.0422 38.926L84.1922 38.746C84.2402 38.69 84.2942 38.662 84.3542 38.662ZM88.1571 38.158C88.2091 38.158 88.2491 38.184 88.2771 38.236C88.3051 38.288 88.3191 38.354 88.3191 38.434C88.3191 38.626 88.2611 38.74 88.1451 38.776C87.9051 38.86 87.6411 38.908 87.3531 38.92C87.2771 39.256 87.1271 39.526 86.9031 39.73C86.6791 39.93 86.4251 40.03 86.1411 40.03C85.9011 40.03 85.6951 39.972 85.5231 39.856C85.3551 39.74 85.2271 39.586 85.1391 39.394C85.0511 39.202 85.0071 38.994 85.0071 38.77C85.0071 38.466 85.0651 38.196 85.1811 37.96C85.2971 37.72 85.4571 37.534 85.6611 37.402C85.8651 37.266 86.0911 37.198 86.3391 37.198C86.6431 37.198 86.8871 37.304 87.0711 37.516C87.2591 37.724 87.3691 37.982 87.4011 38.29C87.5891 38.278 87.8131 38.238 88.0731 38.17C88.1051 38.162 88.1331 38.158 88.1571 38.158ZM86.1891 39.394C86.3171 39.394 86.4271 39.342 86.5191 39.238C86.6151 39.134 86.6791 38.984 86.7111 38.788C86.5871 38.704 86.4911 38.594 86.4231 38.458C86.3591 38.322 86.3271 38.178 86.3271 38.026C86.3271 37.962 86.3331 37.898 86.3451 37.834H86.3151C86.1551 37.834 86.0211 37.912 85.9131 38.068C85.8091 38.22 85.7571 38.436 85.7571 38.716C85.7571 38.936 85.7991 39.104 85.8831 39.22C85.9711 39.336 86.0731 39.394 86.1891 39.394ZM91.9862 38.158C92.0382 38.158 92.0782 38.184 92.1062 38.236C92.1342 38.288 92.1482 38.354 92.1482 38.434C92.1482 38.534 92.1342 38.612 92.1062 38.668C92.0782 38.72 92.0342 38.756 91.9742 38.776C91.7342 38.86 91.4702 38.908 91.1822 38.92C91.1022 39.252 90.9502 39.52 90.7262 39.724C90.5062 39.928 90.2622 40.03 89.9942 40.03C89.5902 40.03 89.2962 39.876 89.1122 39.568C88.9282 39.26 88.8362 38.814 88.8362 38.23C88.8362 37.714 88.9002 37.154 89.0282 36.55C89.1562 35.942 89.3422 35.426 89.5862 35.002C89.8342 34.574 90.1282 34.36 90.4682 34.36C90.6522 34.36 90.8002 34.44 90.9122 34.6C91.0242 34.756 91.0802 34.96 91.0802 35.212C91.0802 35.54 91.0182 35.866 90.8942 36.19C90.7702 36.514 90.5642 36.854 90.2762 37.21C90.5442 37.23 90.7622 37.342 90.9302 37.546C91.0982 37.746 91.1982 37.994 91.2302 38.29C91.4182 38.278 91.6422 38.238 91.9022 38.17C91.9262 38.162 91.9542 38.158 91.9862 38.158ZM90.3302 34.954C90.2502 34.954 90.1622 35.074 90.0662 35.314C89.9742 35.55 89.8882 35.872 89.8082 36.28C89.7282 36.688 89.6682 37.134 89.6282 37.618C89.8922 37.134 90.1022 36.708 90.2582 36.34C90.4182 35.968 90.4982 35.638 90.4982 35.35C90.4982 35.222 90.4822 35.124 90.4502 35.056C90.4222 34.988 90.3822 34.954 90.3302 34.954ZM90.0182 39.394C90.1422 39.394 90.2522 39.342 90.3482 39.238C90.4442 39.134 90.5082 38.984 90.5402 38.788C90.4162 38.704 90.3202 38.594 90.2522 38.458C90.1882 38.322 90.1562 38.178 90.1562 38.026C90.1562 37.97 90.1642 37.894 90.1802 37.798H90.1622C89.9982 37.798 89.8602 37.88 89.7482 38.044C89.6402 38.204 89.5862 38.42 89.5862 38.692C89.5862 38.92 89.6282 39.094 89.7122 39.214C89.8002 39.334 89.9022 39.394 90.0182 39.394ZM95.2961 38.662C95.3481 38.662 95.3881 38.686 95.4161 38.734C95.4481 38.782 95.4641 38.848 95.4641 38.932C95.4641 39.092 95.4261 39.216 95.3501 39.304C95.2021 39.484 94.9921 39.65 94.7201 39.802C94.4521 39.954 94.1641 40.03 93.8561 40.03C93.4361 40.03 93.1101 39.916 92.8781 39.688C92.6461 39.46 92.5301 39.148 92.5301 38.752C92.5301 38.476 92.5881 38.22 92.7041 37.984C92.8201 37.744 92.9801 37.554 93.1841 37.414C93.3921 37.274 93.6261 37.204 93.8861 37.204C94.1181 37.204 94.3041 37.274 94.4441 37.414C94.5841 37.55 94.6541 37.736 94.6541 37.972C94.6541 38.248 94.5541 38.486 94.3541 38.686C94.1581 38.882 93.8241 39.038 93.3521 39.154C93.4521 39.338 93.6421 39.43 93.9221 39.43C94.1021 39.43 94.3061 39.368 94.5341 39.244C94.7661 39.116 94.9661 38.95 95.1341 38.746C95.1821 38.69 95.2361 38.662 95.2961 38.662ZM93.7841 37.792C93.6361 37.792 93.5101 37.878 93.4061 38.05C93.3061 38.222 93.2561 38.43 93.2561 38.674V38.686C93.4921 38.63 93.6781 38.546 93.8141 38.434C93.9501 38.322 94.0181 38.192 94.0181 38.044C94.0181 37.968 93.9961 37.908 93.9521 37.864C93.9121 37.816 93.8561 37.792 93.7841 37.792ZM96.3916 40.03C96.2396 40.03 96.1316 39.95 96.0676 39.79C96.0076 39.63 95.9776 39.374 95.9776 39.022C95.9776 38.502 96.0516 38.008 96.1996 37.54C96.2356 37.424 96.2936 37.34 96.3736 37.288C96.4576 37.232 96.5736 37.204 96.7216 37.204C96.8016 37.204 96.8576 37.214 96.8896 37.234C96.9216 37.254 96.9376 37.292 96.9376 37.348C96.9376 37.412 96.9076 37.556 96.8476 37.78C96.8396 37.808 96.8216 37.872 96.7936 37.972C96.7696 38.072 96.7456 38.19 96.7216 38.326C96.7016 38.458 96.6876 38.604 96.6796 38.764C96.8236 38.204 97.0056 37.804 97.2256 37.564C97.4456 37.324 97.7116 37.204 98.0236 37.204C98.2316 37.204 98.3936 37.27 98.5096 37.402C98.6296 37.53 98.6896 37.696 98.6896 37.9C98.6896 38.068 98.6516 38.21 98.5756 38.326C98.5036 38.442 98.4076 38.5 98.2876 38.5C98.2116 38.5 98.1496 38.482 98.1016 38.446C98.0576 38.41 98.0356 38.36 98.0356 38.296C98.0356 38.268 98.0396 38.236 98.0476 38.2C98.0556 38.164 98.0616 38.138 98.0656 38.122C98.0856 38.062 98.0956 38.006 98.0956 37.954C98.0956 37.846 98.0436 37.792 97.9396 37.792C97.8596 37.792 97.7816 37.834 97.7056 37.918C97.6296 37.998 97.5676 38.108 97.5196 38.248C97.4756 38.384 97.4536 38.532 97.4536 38.692C97.4536 38.908 97.5036 39.082 97.6036 39.214C97.7036 39.342 97.8476 39.406 98.0356 39.406C98.1836 39.406 98.3156 39.358 98.4316 39.262C98.5476 39.162 98.7076 38.99 98.9116 38.746C98.9596 38.69 99.0136 38.662 99.0736 38.662C99.1256 38.662 99.1656 38.686 99.1936 38.734C99.2256 38.782 99.2416 38.848 99.2416 38.932C99.2416 39.092 99.2036 39.216 99.1276 39.304C98.9476 39.52 98.7676 39.696 98.5876 39.832C98.4076 39.964 98.2036 40.03 97.9756 40.03C97.7876 40.03 97.6156 39.99 97.4596 39.91C97.3076 39.826 97.1836 39.726 97.0876 39.61C96.9916 39.494 96.9296 39.382 96.9016 39.274C96.8936 39.306 96.8636 39.418 96.8116 39.61C96.7676 39.77 96.7156 39.88 96.6556 39.94C96.5996 40 96.5116 40.03 96.3916 40.03ZM100.483 40.03C100.235 40.03 100.037 39.94 99.8886 39.76C99.7406 39.58 99.6666 39.344 99.6666 39.052C99.6666 38.732 99.7406 38.43 99.8886 38.146C100.037 37.858 100.233 37.628 100.477 37.456C100.725 37.28 100.987 37.192 101.263 37.192C101.351 37.192 101.409 37.21 101.437 37.246C101.469 37.278 101.495 37.338 101.515 37.426C101.599 37.41 101.687 37.402 101.779 37.402C101.975 37.402 102.073 37.472 102.073 37.612C102.073 37.696 102.043 37.896 101.983 38.212C101.891 38.672 101.845 38.992 101.845 39.172C101.845 39.232 101.859 39.28 101.887 39.316C101.919 39.352 101.959 39.37 102.007 39.37C102.083 39.37 102.175 39.322 102.283 39.226C102.391 39.126 102.537 38.966 102.721 38.746C102.769 38.69 102.823 38.662 102.883 38.662C102.935 38.662 102.975 38.686 103.003 38.734C103.035 38.782 103.051 38.848 103.051 38.932C103.051 39.092 103.013 39.216 102.937 39.304C102.773 39.508 102.599 39.68 102.415 39.82C102.231 39.96 102.053 40.03 101.881 40.03C101.749 40.03 101.627 39.986 101.515 39.898C101.407 39.806 101.325 39.682 101.269 39.526C101.061 39.862 100.799 40.03 100.483 40.03ZM100.699 39.424C100.787 39.424 100.871 39.372 100.951 39.268C101.031 39.164 101.089 39.026 101.125 38.854L101.347 37.75C101.179 37.754 101.023 37.818 100.879 37.942C100.739 38.062 100.627 38.222 100.543 38.422C100.459 38.622 100.417 38.834 100.417 39.058C100.417 39.182 100.441 39.274 100.489 39.334C100.541 39.394 100.611 39.424 100.699 39.424ZM106.557 40.03C106.405 40.03 106.297 39.95 106.233 39.79C106.173 39.63 106.143 39.374 106.143 39.022C106.143 38.502 106.217 38.008 106.365 37.54C106.401 37.424 106.459 37.34 106.539 37.288C106.623 37.232 106.739 37.204 106.887 37.204C106.967 37.204 107.023 37.214 107.055 37.234C107.087 37.254 107.103 37.292 107.103 37.348C107.103 37.412 107.073 37.556 107.013 37.78C107.005 37.808 106.987 37.872 106.959 37.972C106.935 38.072 106.911 38.19 106.887 38.326C106.867 38.458 106.853 38.604 106.845 38.764C106.989 38.204 107.171 37.804 107.391 37.564C107.611 37.324 107.877 37.204 108.189 37.204C108.397 37.204 108.559 37.27 108.675 37.402C108.795 37.53 108.855 37.696 108.855 37.9C108.855 38.068 108.817 38.21 108.741 38.326C108.669 38.442 108.573 38.5 108.453 38.5C108.377 38.5 108.315 38.482 108.267 38.446C108.223 38.41 108.201 38.36 108.201 38.296C108.201 38.268 108.205 38.236 108.213 38.2C108.221 38.164 108.227 38.138 108.231 38.122C108.251 38.062 108.261 38.006 108.261 37.954C108.261 37.846 108.209 37.792 108.105 37.792C108.025 37.792 107.947 37.834 107.871 37.918C107.795 37.998 107.733 38.108 107.685 38.248C107.641 38.384 107.619 38.532 107.619 38.692C107.619 38.908 107.669 39.082 107.769 39.214C107.869 39.342 108.013 39.406 108.201 39.406C108.349 39.406 108.481 39.358 108.597 39.262C108.713 39.162 108.873 38.99 109.077 38.746C109.125 38.69 109.179 38.662 109.239 38.662C109.291 38.662 109.331 38.686 109.359 38.734C109.391 38.782 109.407 38.848 109.407 38.932C109.407 39.092 109.369 39.216 109.293 39.304C109.113 39.52 108.933 39.696 108.753 39.832C108.573 39.964 108.369 40.03 108.141 40.03C107.953 40.03 107.781 39.99 107.625 39.91C107.473 39.826 107.349 39.726 107.253 39.61C107.157 39.494 107.095 39.382 107.067 39.274C107.059 39.306 107.029 39.418 106.977 39.61C106.933 39.77 106.881 39.88 106.821 39.94C106.765 40 106.677 40.03 106.557 40.03ZM116.142 38.662C116.194 38.662 116.234 38.686 116.262 38.734C116.294 38.782 116.31 38.848 116.31 38.932C116.31 39.08 116.272 39.204 116.196 39.304C116.008 39.552 115.772 39.746 115.488 39.886C115.204 40.022 114.92 40.09 114.636 40.09C114.296 40.09 114.036 40.02 113.856 39.88C113.68 39.736 113.592 39.524 113.592 39.244C113.592 38.972 113.68 38.734 113.856 38.53C114.036 38.322 114.294 38.102 114.63 37.87C114.558 37.898 114.468 37.912 114.36 37.912C114.232 37.912 114.12 37.878 114.024 37.81C113.932 37.742 113.86 37.64 113.808 37.504C113.708 37.952 113.578 38.304 113.418 38.56C113.274 38.792 113.138 38.982 113.01 39.13C112.886 39.274 112.742 39.426 112.578 39.586C112.506 39.658 112.43 39.694 112.35 39.694C112.286 39.694 112.234 39.672 112.194 39.628C112.154 39.58 112.134 39.522 112.134 39.454C112.134 39.374 112.162 39.3 112.218 39.232L112.374 39.046C112.57 38.826 112.716 38.634 112.812 38.47C112.9 38.322 112.982 38.158 113.058 37.978C113.138 37.794 113.22 37.552 113.304 37.252C113.38 36.984 113.544 36.85 113.796 36.85C113.976 36.85 114.102 36.932 114.174 37.096C114.218 37.192 114.272 37.264 114.336 37.312C114.404 37.356 114.508 37.378 114.648 37.378C114.716 37.378 114.784 37.37 114.852 37.354C114.92 37.338 114.98 37.32 115.032 37.3C115.088 37.28 115.124 37.268 115.14 37.264C115.256 37.216 115.34 37.192 115.392 37.192C115.46 37.192 115.514 37.212 115.554 37.252C115.594 37.292 115.614 37.352 115.614 37.432C115.614 37.616 115.542 37.764 115.398 37.876C115.01 38.176 114.736 38.416 114.576 38.596C114.42 38.772 114.342 38.948 114.342 39.124C114.342 39.324 114.466 39.424 114.714 39.424C114.902 39.424 115.118 39.364 115.362 39.244C115.606 39.12 115.812 38.954 115.98 38.746C116.024 38.69 116.078 38.662 116.142 38.662ZM119.482 38.662C119.534 38.662 119.574 38.686 119.602 38.734C119.634 38.782 119.65 38.848 119.65 38.932C119.65 39.092 119.612 39.216 119.536 39.304C119.388 39.484 119.178 39.65 118.906 39.802C118.638 39.954 118.35 40.03 118.042 40.03C117.622 40.03 117.296 39.916 117.064 39.688C116.832 39.46 116.716 39.148 116.716 38.752C116.716 38.476 116.774 38.22 116.89 37.984C117.006 37.744 117.166 37.554 117.37 37.414C117.578 37.274 117.812 37.204 118.072 37.204C118.304 37.204 118.49 37.274 118.63 37.414C118.77 37.55 118.84 37.736 118.84 37.972C118.84 38.248 118.74 38.486 118.54 38.686C118.344 38.882 118.01 39.038 117.538 39.154C117.638 39.338 117.828 39.43 118.108 39.43C118.288 39.43 118.492 39.368 118.72 39.244C118.952 39.116 119.152 38.95 119.32 38.746C119.368 38.69 119.422 38.662 119.482 38.662ZM117.97 37.792C117.822 37.792 117.696 37.878 117.592 38.05C117.492 38.222 117.442 38.43 117.442 38.674V38.686C117.678 38.63 117.864 38.546 118 38.434C118.136 38.322 118.204 38.192 118.204 38.044C118.204 37.968 118.182 37.908 118.138 37.864C118.098 37.816 118.042 37.792 117.97 37.792ZM123.691 38.662C123.743 38.662 123.783 38.686 123.811 38.734C123.843 38.782 123.859 38.848 123.859 38.932C123.859 39.092 123.821 39.216 123.745 39.304C123.613 39.46 123.497 39.586 123.397 39.682C123.301 39.774 123.181 39.856 123.037 39.928C122.897 39.996 122.737 40.03 122.557 40.03C122.321 40.03 122.153 39.938 122.053 39.754C121.953 39.566 121.903 39.284 121.903 38.908C121.903 38.72 121.911 38.538 121.927 38.362H121.915C121.755 38.894 121.557 39.304 121.321 39.592C121.089 39.88 120.823 40.024 120.523 40.024C120.319 40.024 120.159 39.95 120.043 39.802C119.927 39.654 119.869 39.468 119.869 39.244C119.869 39.044 119.915 38.882 120.007 38.758C120.099 38.634 120.229 38.572 120.397 38.572C120.473 38.572 120.529 38.588 120.565 38.62C120.605 38.652 120.621 38.696 120.613 38.752C120.581 38.944 120.565 39.076 120.565 39.148C120.565 39.292 120.601 39.364 120.673 39.364C120.713 39.364 120.757 39.334 120.805 39.274C120.857 39.214 120.943 39.068 121.063 38.836C121.155 38.66 121.249 38.462 121.345 38.242C121.445 38.022 121.527 37.826 121.591 37.654C121.655 37.486 121.729 37.372 121.813 37.312C121.897 37.248 122.017 37.216 122.173 37.216C122.325 37.216 122.437 37.246 122.509 37.306C122.581 37.366 122.617 37.464 122.617 37.6L122.605 38.044C122.589 38.38 122.581 38.622 122.581 38.77C122.581 39.19 122.667 39.4 122.839 39.4C122.911 39.4 122.981 39.366 123.049 39.298C123.121 39.23 123.231 39.106 123.379 38.926L123.529 38.746C123.577 38.69 123.631 38.662 123.691 38.662ZM127.494 38.158C127.546 38.158 127.586 38.184 127.614 38.236C127.642 38.288 127.656 38.354 127.656 38.434C127.656 38.626 127.598 38.74 127.482 38.776C127.242 38.86 126.978 38.908 126.69 38.92C126.614 39.256 126.464 39.526 126.24 39.73C126.016 39.93 125.762 40.03 125.478 40.03C125.238 40.03 125.032 39.972 124.86 39.856C124.692 39.74 124.564 39.586 124.476 39.394C124.388 39.202 124.344 38.994 124.344 38.77C124.344 38.466 124.402 38.196 124.518 37.96C124.634 37.72 124.794 37.534 124.998 37.402C125.202 37.266 125.428 37.198 125.676 37.198C125.98 37.198 126.224 37.304 126.408 37.516C126.596 37.724 126.706 37.982 126.738 38.29C126.926 38.278 127.15 38.238 127.41 38.17C127.442 38.162 127.47 38.158 127.494 38.158ZM125.526 39.394C125.654 39.394 125.764 39.342 125.856 39.238C125.952 39.134 126.016 38.984 126.048 38.788C125.924 38.704 125.828 38.594 125.76 38.458C125.696 38.322 125.664 38.178 125.664 38.026C125.664 37.962 125.67 37.898 125.682 37.834H125.652C125.492 37.834 125.358 37.912 125.25 38.068C125.146 38.22 125.094 38.436 125.094 38.716C125.094 38.936 125.136 39.104 125.22 39.22C125.308 39.336 125.41 39.394 125.526 39.394ZM131.323 38.158C131.375 38.158 131.415 38.184 131.443 38.236C131.471 38.288 131.485 38.354 131.485 38.434C131.485 38.534 131.471 38.612 131.443 38.668C131.415 38.72 131.371 38.756 131.311 38.776C131.071 38.86 130.807 38.908 130.519 38.92C130.439 39.252 130.287 39.52 130.063 39.724C129.843 39.928 129.599 40.03 129.331 40.03C128.927 40.03 128.633 39.876 128.449 39.568C128.265 39.26 128.173 38.814 128.173 38.23C128.173 37.714 128.237 37.154 128.365 36.55C128.493 35.942 128.679 35.426 128.923 35.002C129.171 34.574 129.465 34.36 129.805 34.36C129.989 34.36 130.137 34.44 130.249 34.6C130.361 34.756 130.417 34.96 130.417 35.212C130.417 35.54 130.355 35.866 130.231 36.19C130.107 36.514 129.901 36.854 129.613 37.21C129.881 37.23 130.099 37.342 130.267 37.546C130.435 37.746 130.535 37.994 130.567 38.29C130.755 38.278 130.979 38.238 131.239 38.17C131.263 38.162 131.291 38.158 131.323 38.158ZM129.667 34.954C129.587 34.954 129.499 35.074 129.403 35.314C129.311 35.55 129.225 35.872 129.145 36.28C129.065 36.688 129.005 37.134 128.965 37.618C129.229 37.134 129.439 36.708 129.595 36.34C129.755 35.968 129.835 35.638 129.835 35.35C129.835 35.222 129.819 35.124 129.787 35.056C129.759 34.988 129.719 34.954 129.667 34.954ZM129.355 39.394C129.479 39.394 129.589 39.342 129.685 39.238C129.781 39.134 129.845 38.984 129.877 38.788C129.753 38.704 129.657 38.594 129.589 38.458C129.525 38.322 129.493 38.178 129.493 38.026C129.493 37.97 129.501 37.894 129.517 37.798H129.499C129.335 37.798 129.197 37.88 129.085 38.044C128.977 38.204 128.923 38.42 128.923 38.692C128.923 38.92 128.965 39.094 129.049 39.214C129.137 39.334 129.239 39.394 129.355 39.394ZM134.633 38.662C134.685 38.662 134.725 38.686 134.753 38.734C134.785 38.782 134.801 38.848 134.801 38.932C134.801 39.092 134.763 39.216 134.687 39.304C134.539 39.484 134.329 39.65 134.057 39.802C133.789 39.954 133.501 40.03 133.193 40.03C132.773 40.03 132.447 39.916 132.215 39.688C131.983 39.46 131.867 39.148 131.867 38.752C131.867 38.476 131.925 38.22 132.041 37.984C132.157 37.744 132.317 37.554 132.521 37.414C132.729 37.274 132.963 37.204 133.223 37.204C133.455 37.204 133.641 37.274 133.781 37.414C133.921 37.55 133.991 37.736 133.991 37.972C133.991 38.248 133.891 38.486 133.691 38.686C133.495 38.882 133.161 39.038 132.689 39.154C132.789 39.338 132.979 39.43 133.259 39.43C133.439 39.43 133.643 39.368 133.871 39.244C134.103 39.116 134.303 38.95 134.471 38.746C134.519 38.69 134.573 38.662 134.633 38.662ZM133.121 37.792C132.973 37.792 132.847 37.878 132.743 38.05C132.643 38.222 132.593 38.43 132.593 38.674V38.686C132.829 38.63 133.015 38.546 133.151 38.434C133.287 38.322 133.355 38.192 133.355 38.044C133.355 37.968 133.333 37.908 133.289 37.864C133.249 37.816 133.193 37.792 133.121 37.792ZM135.729 40.03C135.577 40.03 135.469 39.95 135.405 39.79C135.345 39.63 135.315 39.374 135.315 39.022C135.315 38.502 135.389 38.008 135.537 37.54C135.573 37.424 135.631 37.34 135.711 37.288C135.795 37.232 135.911 37.204 136.059 37.204C136.139 37.204 136.195 37.214 136.227 37.234C136.259 37.254 136.275 37.292 136.275 37.348C136.275 37.412 136.245 37.556 136.185 37.78C136.177 37.808 136.159 37.872 136.131 37.972C136.107 38.072 136.083 38.19 136.059 38.326C136.039 38.458 136.025 38.604 136.017 38.764C136.161 38.204 136.343 37.804 136.563 37.564C136.783 37.324 137.049 37.204 137.361 37.204C137.569 37.204 137.731 37.27 137.847 37.402C137.967 37.53 138.027 37.696 138.027 37.9C138.027 38.068 137.989 38.21 137.913 38.326C137.841 38.442 137.745 38.5 137.625 38.5C137.549 38.5 137.487 38.482 137.439 38.446C137.395 38.41 137.373 38.36 137.373 38.296C137.373 38.268 137.377 38.236 137.385 38.2C137.393 38.164 137.399 38.138 137.403 38.122C137.423 38.062 137.433 38.006 137.433 37.954C137.433 37.846 137.381 37.792 137.277 37.792C137.197 37.792 137.119 37.834 137.043 37.918C136.967 37.998 136.905 38.108 136.857 38.248C136.813 38.384 136.791 38.532 136.791 38.692C136.791 38.908 136.841 39.082 136.941 39.214C137.041 39.342 137.185 39.406 137.373 39.406C137.521 39.406 137.653 39.358 137.769 39.262C137.885 39.162 138.045 38.99 138.249 38.746C138.297 38.69 138.351 38.662 138.411 38.662C138.463 38.662 138.503 38.686 138.531 38.734C138.563 38.782 138.579 38.848 138.579 38.932C138.579 39.092 138.541 39.216 138.465 39.304C138.285 39.52 138.105 39.696 137.925 39.832C137.745 39.964 137.541 40.03 137.313 40.03C137.125 40.03 136.953 39.99 136.797 39.91C136.645 39.826 136.521 39.726 136.425 39.61C136.329 39.494 136.267 39.382 136.239 39.274C136.231 39.306 136.201 39.418 136.149 39.61C136.105 39.77 136.053 39.88 135.993 39.94C135.937 40 135.849 40.03 135.729 40.03ZM142.154 38.674C142.206 38.674 142.246 38.7 142.274 38.752C142.306 38.8 142.322 38.862 142.322 38.938C142.322 39.03 142.308 39.102 142.28 39.154C142.252 39.206 142.208 39.252 142.148 39.292L140.996 40.066C140.844 40.894 140.644 41.544 140.396 42.016C140.152 42.492 139.84 42.73 139.46 42.73C139.256 42.73 139.09 42.666 138.962 42.538C138.834 42.414 138.77 42.25 138.77 42.046C138.77 41.858 138.812 41.666 138.896 41.47C138.984 41.274 139.144 41.048 139.376 40.792C139.612 40.54 139.944 40.25 140.372 39.922L140.39 39.784C140.418 39.636 140.45 39.424 140.486 39.148C140.406 39.436 140.294 39.656 140.15 39.808C140.006 39.956 139.854 40.03 139.694 40.03C139.514 40.03 139.366 39.948 139.25 39.784C139.138 39.616 139.082 39.408 139.082 39.16C139.082 38.86 139.102 38.586 139.142 38.338C139.182 38.086 139.248 37.82 139.34 37.54C139.38 37.42 139.436 37.334 139.508 37.282C139.58 37.23 139.694 37.204 139.85 37.204C139.938 37.204 139.998 37.218 140.03 37.246C140.066 37.274 140.084 37.316 140.084 37.372C140.084 37.404 140.062 37.512 140.018 37.696C139.978 37.844 139.946 37.978 139.922 38.098C139.89 38.262 139.862 38.42 139.838 38.572C139.814 38.72 139.802 38.842 139.802 38.938C139.802 39.09 139.844 39.166 139.928 39.166C139.988 39.166 140.062 39.106 140.15 38.986C140.242 38.866 140.338 38.684 140.438 38.44C140.542 38.196 140.642 37.896 140.738 37.54C140.77 37.42 140.818 37.334 140.882 37.282C140.95 37.23 141.05 37.204 141.182 37.204C141.274 37.204 141.338 37.216 141.374 37.24C141.41 37.264 141.428 37.304 141.428 37.36C141.428 37.46 141.376 37.804 141.272 38.392L141.116 39.358C141.424 39.126 141.724 38.914 142.016 38.722C142.068 38.69 142.114 38.674 142.154 38.674ZM139.526 42.148C139.626 42.148 139.738 42.032 139.862 41.8C139.986 41.568 140.11 41.182 140.234 40.642C139.926 40.902 139.702 41.138 139.562 41.35C139.426 41.566 139.358 41.754 139.358 41.914C139.358 41.982 139.37 42.038 139.394 42.082C139.422 42.126 139.466 42.148 139.526 42.148Z" fill="#FFCB44"/>
<rect x="0.5" y="5.25818" width="31.1879" height="45.902" rx="4.5" fill="#FFCB44" stroke="#B9B9B9"/>
<path d="M7.53339 14.2745H25.3394V19.0327H7.53339V14.2745Z" fill="white"/>
<rect x="7.53339" y="25.8301" width="17.8061" height="4.75817" fill="white"/>
<rect x="7.53339" y="37.3856" width="17.8061" height="4.75817" fill="white"/>
</svg>
